{"title":"The.Big.Bang.Theory.S05E07","uid":6778497,"size":46980796,"categoryP":"video","categoryS":"tv_shows","magnet":"?xt=urn:btih:e75f4a77c9b4e9ab831992ef2960d70efdea3d75&amp;dn=The.Big.Bang.Theory.S05E07&amp;tr=udp%3A%2F%2Ftracker.openbittorrent.com%3A80&amp;tr=udp%3A%2F%2Fopen.demonii.com%3A1337&amp;tr=udp%3A%2F%2Ftracker.coppersurfer.tk%3A6969&amp;tr=udp%3A%2F%2Fexodus.desync.com%3A6969","seeders":1,"leechers":0,"uploader":"t.trikiti","files":1,"time":1319808811,"description":"EPIC EPISODE!!!!!\n\n &lt;a href=&quot;\nhttp://img683.imageshack.us/img683/5828/thebigbangtheorys05e07s.jpg&quot; rel=&quot;nofollow&quot; target=&quot;_NEW&quot;&gt;\nhttp://img683.imageshack.us/img683/5828/thebigbangtheorys05e07s.jpg&lt;/a&gt;\n\n\n\nFormat profile                   : Base Media\nCodec ID                         : isom\nFile size                        : 44.8 MiB\nDuration                         : 19mn 25s\nOverall bit rate                 : 322 Kbps\n\nVideo\nID                               : 1\nFormat                           : AVC\nFormat/Info                      : Advanced Video Codec\nFormat profile                   : &lt;a class=&quot;__cf_email__&quot; href=&quot;/cdn-cgi/l/email-protection&quot; data-cfemail=&quot;afe7c6c8c7efe39c819f&quot;&gt;[email&amp;#160;protected]&lt;/a&gt;&lt;script cf-hash='f9e31' type=&quot;text/javascript&quot;&gt;\n/* &lt;![CDATA[ */!function(){try{var t=&quot;currentScript&quot;in document?document.currentScript:function(){for(var t=document.getElementsByTagName(&quot;script&quot;),e=t.length;e--;)if(t[e].getAttribute(&quot;cf-hash&quot;))return t[e]}();if(t&amp;&amp;t.previousSibling){var e,r,n,i,c=t.previousSibling,a=c.getAttribute(&quot;data-cfemail&quot;);if(a){for(e=&quot;&quot;,r=parseInt(a.substr(0,2),16),n=2;a.length-n;n+=2)i=parseInt(a.substr(n,2),16)^r,e+=String.fromCharCode(i);e=document.createTextNode(e),c.parentNode.replaceChild(e,c)}}}catch(u){}}();/* ]]&gt; */&lt;/script&gt;\nFormat settings, CABAC           : Yes\nFormat settings, ReFrames        : 5 frames\nFormat settings, GOP             : M=4, N=32\nCodec ID                         : avc1\nCodec ID/Info                    : Advanced Video Coding\nDuration                         : 19mn 25s\nBit rate                         : 179 Kbps\nMaximum bit rate                 : 2 217 Kbps\nWidth                            : 624 pixels\nHeight                           : 352 pixels\nDisplay aspect ratio             : 16:9\nFrame rate mode                  : Constant\nFrame rate                       : 23.976 fps\nColor space                      : YUV\nChroma subsampling               : 4:2:0\nBit depth                        : 8 bits\nScan type                        : Progressive\nBits/(Pixel*Frame)               : 0.034\nStream size                      : 24.9 MiB (55%)\n\nAudio\nID                               : 2\nFormat                           : AAC\nFormat/Info                      : Advanced Audio Codec\nFormat profile                   : LC\nCodec ID                         : 40\nDuration                         : 19mn 25s\nBit rate mode                    : Variable\nBit rate                         : 139 Kbps\nMaximum bit rate                 : 193 Kbps\nChannel(s)                       : 2 channels\nChannel positions                : Front: L R\nSampling rate                    : 48.0 KHz\nCompression mode                 : Lossy\nStream size                      : 19.4 MiB (43%)\n\n\n","torrent":{"xt":"urn:btih:e75f4a77c9b4e9ab831992ef2960d70efdea3d75","amp;dn":"The.Big.Bang.Theory.S05E07","amp;tr":["udp%3A%2F%2Ftracker.openbittorrent.com%3A80","udp%3A%2F%2Fopen.demonii.com%3A1337","udp%3A%2F%2Ftracker.coppersurfer.tk%3A6969","udp%3A%2F%2Fexodus.desync.com%3A6969"],"infoHash":"e75f4a77c9b4e9ab831992ef2960d70efdea3d75","infoHashBuffer":{"type":"Buffer","data":[231,95,74,119,201,180,233,171,131,25,146,239,41,96,215,14,253,234,61,117]},"announce":[],"urlList":[]}}